<svg xmlns="http://www.w3.org/2000/svg" viewBox="0 0 160 160" role="img" aria-labelledby="title desc">
  <title id="title">Nishanth Kottapalli skull logo</title>
  <desc id="desc">Stylized skull wearing round glasses with a small flame-like tuft above the head.</desc>
  <rect width="160" height="160" rx="18" fill="#000000"/>
  <g fill="#e9e4db" stroke="#e9e4db" stroke-linecap="round" stroke-linejoin="round">
    <path d="M80 14c4 0 8 2 10 6 1-4 5-7 10-8-2 5 0 10 4 14 2 3 3 7 2 11-3-2-6-3-9-3-4 0-8 2-11 5-1-5-3-9-7-13-3-3-4-7-4-12 2 0 3 0 5 0Z" fill="#e9e4db" stroke="none"/>
    <path d="M80 40c-26 0-43 19-43 43 0 18 9 29 18 36v9c0 10 11 18 25 18h0c14 0 25-8 25-18v-9c9-7 18-18 18-36 0-24-17-43-43-43Z" fill="#e9e4db" stroke="none"/>
  </g>
  <g fill="none" stroke="#000000" stroke-width="5" stroke-linecap="round" stroke-linejoin="round">
    <circle cx="58" cy="76" r="19"/>
    <circle cx="102" cy="76" r="19"/>
    <path d="M77 76h6"/>
    <path d="M40 73c4-5 9-8 14-10"/>
    <path d="M106 63c5 2 10 5 14 10"/>
    <circle cx="58" cy="76" r="10" stroke="#9b7b3d"/>
    <circle cx="102" cy="76" r="10" stroke="#9b7b3d"/>
    <path d="M80 88l-7 10h14l-7-10Z" fill="#000000" stroke="#000000"/>
    <path d="M55 107c8 8 18 12 25 12 8 0 18-4 26-12"/>
    <path d="M57 104c13 4 33 4 46 0"/>
    <path d="M62 106v14M69 106v14M76 106v14M84 106v14M91 106v14M98 106v14" stroke-width="3.2"/>
    <path d="M65 50c6-4 15-6 15-6s9 2 15 6"/>
  </g>
</svg>